<?xml version="1.0" encoding="utf-8"?>
<!-- Generator: Adobe Illustrator 25.0.0, SVG Export Plug-In . SVG Version: 6.00 Build 0)  -->
<svg version="1.1" id="Layer_1" xmlns="http://www.w3.org/2000/svg" xmlns:xlink="http://www.w3.org/1999/xlink" x="0px" y="0px"
	 viewBox="0 0 200 200" style="enable-background:new 0 0 200 200;" xml:space="preserve">
<style type="text/css">
	.st0{fill:url(#SVGID_1_);}
</style>
<linearGradient id="SVGID_1_" gradientUnits="userSpaceOnUse" x1="87.5199" y1="125.1841" x2="183.4018" y2="4.4733">
	<stop  offset="0" style="stop-color:#FFFFFF;stop-opacity:0"/>
	<stop  offset="0.1609" style="stop-color:#F0F5FF;stop-opacity:0.1609"/>
	<stop  offset="0.4139" style="stop-color:#DEEBFF;stop-opacity:0.4139"/>
	<stop  offset="0.6844" style="stop-color:#D3E4FF;stop-opacity:0.6844"/>
	<stop  offset="1" style="stop-color:#D0E2FF"/>
</linearGradient>
<path class="st0" d="M143.8,34.7c8.3,11.1,7.1,30.1,12.9,47.1c5.9,16.9,18.6,31.9,18.3,45.6s-13.6,26.3-28.2,34.9
	c-14.7,8.6-30.8,13.3-47.1,13.7c-16.4,0.4-33-3.4-47.1-12.2S27,141.2,22.8,125.7c-4.3-15.5-1.2-32.9,6.4-46.4
	C36.7,65.7,48.7,55.8,61.3,46c12.5-9.7,25.6-19.3,41-22.5S135.4,23.6,143.8,34.7z"/>
</svg>
