<svg id="fastrax_logo" data-name="Layer 1" xmlns="http://www.w3.org/2000/svg" viewBox="0 0 1009.47 247.41">
<path id="squares" d="M0,9.07H26.64V35.72H0ZM86.23,20.55H40.57V60.47H8.85V96.62H45V66.22H86.23Z" style="fill:#f9ad48"/>
<polygon id="line" points="6.87 212.98 0 237.07 996.75 217.31 6.87 212.98" style="fill: var(--text-color)"/>
<path id="rax" d="M624,187.93l12.8-31.34h10.45L659,187.93h62.7l12.61-35.2,35.49.65-10.17,34.55H819l29.84-31.72L854,187.93h33.51l-8.85-47.06,41.8-49.42L996.75,6.72,858.46,125.43l-7.89-28.24H817.81l11.48,41.32-32,32.67s17.79-51.4,18.81-53.94a15.9,15.9,0,0,0-17.6-20.15H738a41.81,41.81,0,0,0-18.83,13.84,17.41,17.41,0,0,0-15.44-13.84H624.43L591.2,188Zm125.39-65.34c3.2-.66,27.58,0,27.58,0s2.54-.57,2.54,2.54a43.66,43.66,0,0,1-1.22,8.19H740.6s5.55-10.07,8.74-10.72Zm-47.92,26.35-7,25.34-11.11-16.47A36.92,36.92,0,0,0,701.43,149ZM648.81,122.3h34.55s.85,5.94-7.72,8.57h-30.4Z" style="fill: var(--text-color)"/>
<path id="fast" d="M404.8,54.24s-37.65,1.88-48.48,26.18c0,0,2.35-23.82-32.85-26.18H244.76S220,60,210.48,73.07l6.22-18.83H93.2V70.91H63.45a70.14,70.14,0,0,0-12.52,20H200.24l-3.3,11.86H47.07L15.73,187.46H63.45l17-49H183.11l-18.08,49h47.55l15.23-49,61.86.94-17.61,48.48H453.75s40.95-15.72,34.74-52.34c0,0-1.88-6.21-21.84-14.5l-64.2-28.24,156.93-.48-35.2,95.56h47.07l34.27-96.48h54.69l13.84-37.19ZM304,102.82H244.76c.67-6.69,13.56-11.39,13.56-11.39h38.5c9,.85,7.15,11.39,7.15,11.39Zm124.65,46.12H332l16.29-42.36s-.48,10,14.76,14.51Z" style="fill: var(--text-color)"/>
</svg>