<svg xmlns="http://www.w3.org/2000/svg" width="100" height="100" viewBox="0 0 100 100"><g transform="translate(-137 -91)"><circle cx="50" cy="50" r="50" transform="translate(137 91)" fill="rgba(173,185,206,0.06)"/><g transform="translate(154.255 116.75)"><path d="M21.8,8.628" transform="translate(13.8 6.155)" fill="none" stroke="#84888e" stroke-linecap="round" stroke-miterlimit="10" stroke-width="2.5"/><path d="M25.815,38.537H17.349a7.6,7.6,0,0,1-7.6-7.6V15.9a7.605,7.605,0,0,1,7.6-7.6H32.383a7.592,7.592,0,0,1,3.221.714" transform="translate(0 5.773)" fill="none" stroke="#84888e" stroke-linecap="round" stroke-miterlimit="10" stroke-width="2.5"/><rect width="6.418" height="6.418" rx="3.209" transform="translate(26.706 19.812)" fill="none" stroke="#84888e" stroke-linecap="round" stroke-linejoin="round" stroke-width="2.5"/><path d="M9.745,23.535l6.129-5.856a6.153,6.153,0,0,1,8.078-.373l2.786,2.346" transform="translate(0 14.559)" fill="none" stroke="#84888e" stroke-linecap="round" stroke-linejoin="round" stroke-width="2.5"/><path d="M34.38,34.969l7.171-13.029a7.723,7.723,0,0,0-3.127-10.465h0A7.722,7.722,0,0,0,27.96,14.6L20.853,27.751a5.254,5.254,0,0,0,2.127,7.124h0A5.259,5.259,0,0,0,30.1,32.747l7.347-13.6-.036.064a2.93,2.93,0,0,0-.9-4.027h0a2.934,2.934,0,0,0-3.86,1.458l-3.8,7.042" transform="translate(11.987 8.349)" fill="none" stroke="#f9ad47" stroke-linecap="round" stroke-linejoin="round" stroke-width="2.5"/><path d="M14.161,9.351V8.216A4.858,4.858,0,0,1,18.9,3.25H43.839a4.858,4.858,0,0,1,4.739,4.966V12.58" transform="translate(5.054)" fill="none" stroke="#84888e" stroke-linecap="round" stroke-linejoin="round" stroke-width="2.5"/><line x2="7.131" transform="translate(41.414 10.798)" fill="none" stroke="#84888e" stroke-linecap="round" stroke-linejoin="round" stroke-width="2.5"/></g></g></svg>