<?xml version="1.0" encoding="utf-8"?>
<!-- Generator: Adobe Illustrator 25.1.0, SVG Export Plug-In . SVG Version: 6.00 Build 0)  -->
<svg version="1.1" id="Layer_1" xmlns="http://www.w3.org/2000/svg" xmlns:xlink="http://www.w3.org/1999/xlink" x="0px" y="0px"
	 viewBox="0 0 436.8 362.2" style="enable-background:new 0 0 436.8 362.2;" xml:space="preserve">
<style type="text/css">
	.st0{fill:#FFFFFF;}
	.st1{fill:#F9AD48;}
</style>
<path class="st0" d="M337.5,96.3H318c-2.7,0-4.9,2.2-4.9,4.9v14.6h-9.7V91.4c0-0.6-0.1-1.2-0.3-1.8l-3.9-9.8l-5.9-14.6
	c-0.7-1.9-2.5-3.1-4.5-3.1s-3.8,1.2-4.5,3.1l-5.8,14.6l-3.9,9.8c-0.2,0.6-0.3,1.2-0.3,1.8v24.4h-9.8V42.7c0-2.7-2.2-4.9-4.9-4.9h-39
	c-2.7,0-4.9,2.2-4.9,4.9v73.1h-24.4V77.6l4.6-13.9c0.3-0.9,0.3-1.8,0.1-2.7l-4.9-19.5c-0.5-2.2-2.5-3.7-4.7-3.7H167
	c-2.2,0-4.2,1.5-4.7,3.7L157.4,61c-0.2,0.9-0.2,1.8,0.1,2.7l4.6,13.9v38.2h-24.3c0.2-5,1.5-10,3.8-14.5c1-1.9,2.2-3.8,3.2-5.5
	c4.6-6.2,7.2-13.7,7.5-21.5c0-9.8-3.9-19.2-10.9-26c-7-6.8-16.4-10.6-26.1-10.5c-4.5,0.1-8.8,1-13,2.7c-1.5,0.6-2.6,1.9-3,3.5
	c-0.3,1.6,0.2,3.3,1.3,4.4L116.2,64l-10.3,10.3L90.2,58.7c-1.1-1.1-2.8-1.6-4.4-1.3c-1.6,0.3-2.9,1.4-3.6,2.9
	c-2.2,5.1-3.2,10.6-3,16.1c0.9,7.4,3.7,14.5,8.1,20.5l0.5,0.8c3.5,5.5,5.5,11.7,5.9,18.2H79.3v-14.6c0-2.7-2.2-4.9-4.9-4.9H54.9
	c-2.7,0-4.9,2.2-4.9,4.9v224.1c0,2.7,2.2,4.9,4.9,4.9h253.9c-0.5-1.5-0.8-3.1-0.8-4.8v-1.9c-1.5-0.6-3-1.2-4.5-1.9l-1.4,1.4
	c-2.8,2.9-6.6,4.4-10.7,4.4c-4,0-7.8-1.6-10.7-4.4l-2.6-2.6h-199V203.5h179.2c0.4-3.3,1.9-6.3,4.3-8.6l1.7-1.6V145h9.8v38.4l6.7-6.7
	c0.9-0.9,1.9-1.7,3-2.4v-82l2.3-5.8h5.1l2.3,5.8v80.1c3.2,0.5,6.2,1.9,8.5,4.3l1.2,1.2V145h9.7v18c2.6-2.3,6-3.7,9.8-3.8v-53.2h9.7
	v53.2h9.8v-58.1C342.4,98.5,340.2,96.3,337.5,96.3z M69.5,320.4h-9.7V106.1h9.7V320.4z M170.8,47.6h11.9l3.6,14.4l-4.4,13.3
	c-0.2,0.5-0.2,1-0.2,1.5v78h-9.8v-78c0-0.5-0.1-1-0.2-1.5L167.2,62L170.8,47.6z M162.1,125.6v9.7h-24.4v-9.7H162.1z M93.9,193.8
	H79.3V145h14.6V193.8z M93.9,135.3H79.3v-9.7h14.6V135.3z M133.1,96.7c-3.4,6.4-5.1,13.6-5,20.8v76.2h-7.6v-82.8h-9.7v82.8h-7v-76.7
	c-0.1-8.7-2.7-17.2-7.4-24.5l-0.5-0.9c-3.5-4.7-5.8-10.1-6.7-15.9c-0.1-1.5,0-2.9,0.2-4.4l9.8,9.8c3.8,3.8,10,3.8,13.8,0l10.3-10.3
	c3.8-3.8,3.8-10,0-13.8l-9.4-9.4c0.6-0.1,1.2-0.1,1.8-0.1c7.2-0.1,14.1,2.7,19.2,7.7c5.1,5,8,11.9,8,19.1c-0.3,6-2.5,11.7-6.1,16.4
	C135.4,92.7,134.2,94.6,133.1,96.7z M149.4,193.8h-11.6V145h24.4v9.7h-9.7c-2.7,0-4.9,2.2-4.9,4.9v19.5c0,2.7,2.2,4.9,4.9,4.9h1.9
	L149.4,193.8z M196.2,174.3h-4.9c-1.7,0-3.2,0.9-4.1,2.3c-0.9,1.4-1,3.2-0.2,4.7l6.2,12.4h-33l6.2-12.4c0.7-1.5,0.7-3.3-0.2-4.7
	c-0.9-1.4-2.5-2.3-4.1-2.3h-4.9v-9.7h39V174.3z M215.7,193.8h-11.6l-4.9-9.8h1.9c2.7,0,4.9-2.2,4.9-4.9v-19.5c0-2.7-2.2-4.9-4.9-4.9
	h-9.8V145h24.4V193.8z M215.7,135.3h-24.4v-9.7h24.4V135.3z M254.7,193.8h-29.2V184h14.6v-9.7h-14.6v-9.7h14.6v-9.8h-14.6V145h14.6
	v-9.8h-14.6v-9.7h14.6v-9.7h-14.6v-9.8h14.6v-9.7h-14.6v-9.8h14.6v-9.7h-14.6v-9.8h14.6v-9.7h-14.6v-9.7h29.2V193.8z M274.2,135.3
	h-9.8v-9.7h9.8V135.3z M313.1,135.3h-9.7v-9.7h9.7V135.3z"/>
<g>
	<path class="st0" d="M401.4,233.3h-8.6c-1.4-5.3-3.5-10.4-6.3-15.2l6.1-6.1c0.8-0.8,1.3-1.9,1.3-3s-0.4-2.2-1.3-3l-16.3-16.3
		c-0.8-0.8-1.9-1.3-3-1.3s-2.2,0.4-3,1.3l-6.1,6.1c-4.8-2.8-9.8-4.9-15.2-6.3v-8.6c0-2.4-1.9-4.3-4.3-4.3h-23.1
		c-2.4,0-4.3,1.9-4.3,4.3v8.6c-5.3,1.4-10.4,3.5-15.2,6.3l-6.1-6.1c-0.8-0.8-1.9-1.3-3-1.3c-1.1,0-2.2,0.4-3,1.3L273.7,206
		c-0.8,0.8-1.3,1.9-1.3,3s0.4,2.2,1.3,3l6.1,6.1c-2.8,4.8-4.9,9.8-6.3,15.2h-8.6c-2.4,0-4.3,1.9-4.3,4.3v23.1c0,2.4,1.9,4.3,4.3,4.3
		h8.6c1.4,5.3,3.5,10.4,6.3,15.2l-6.1,6.1c-0.8,0.8-1.3,1.9-1.3,3c0,1.1,0.4,2.2,1.3,3l16.3,16.3c0.8,0.8,1.9,1.3,3,1.3
		s2.2-0.4,3-1.3l6.1-6.1c4.8,2.8,9.8,4.9,15.2,6.3v8.6c0,2.4,1.9,4.3,4.3,4.3h23.1c2.4,0,4.3-1.9,4.3-4.3v-8.6
		c5.3-1.4,10.4-3.5,15.2-6.3l6.1,6.1c1.7,1.7,4.4,1.7,6,0l16.3-16.3c1.7-1.7,1.7-4.4,0-6l-6.1-6.1c2.8-4.8,4.9-9.8,6.3-15.2h8.6
		c2.4,0,4.3-1.9,4.3-4.3v-23.1C405.6,235.2,403.7,233.3,401.4,233.3z M385.2,259.8c-1.4,6.6-3.9,12.9-7.7,18.6
		c-1.1,1.7-0.9,3.9,0.5,5.4l5.4,5.4l-10.3,10.3l-5.4-5.4c-1.4-1.4-3.7-1.7-5.4-0.5c-5.7,3.7-11.9,6.3-18.6,7.7
		c-2,0.4-3.4,2.2-3.4,4.2v7.7h-14.6v-7.7c0-2-1.4-3.8-3.4-4.2c-6.6-1.4-12.9-3.9-18.6-7.7c-1.7-1.1-3.9-0.9-5.4,0.5l-5.4,5.4
		l-10.3-10.3l5.4-5.4c1.4-1.4,1.7-3.7,0.5-5.4c-3.8-5.7-6.3-11.9-7.7-18.6c-0.4-2-2.2-3.4-4.2-3.4h-7.7v-14.6h7.7
		c2,0,3.8-1.4,4.2-3.4c1.4-6.6,3.9-12.9,7.7-18.6c1.1-1.7,0.9-3.9-0.5-5.4l-5.4-5.4l10.3-10.3l5.4,5.4c1.4,1.4,3.7,1.7,5.4,0.5
		c5.7-3.8,11.9-6.3,18.6-7.7c2-0.4,3.4-2.2,3.4-4.2v-7.7h14.6v7.7c0,2,1.4,3.8,3.4,4.2c6.6,1.4,12.9,3.9,18.6,7.7
		c1.7,1.1,3.9,0.9,5.4-0.5l5.4-5.4l10.3,10.3l-5.4,5.4c-1.4,1.4-1.7,3.7-0.5,5.4c3.7,5.7,6.3,11.9,7.7,18.6c0.4,2,2.2,3.4,4.2,3.4
		h7.7v14.6h-7.7C387.4,256.4,385.6,257.8,385.2,259.8z"/>
	<path class="st1" d="M310.1,261.3c0.5-1,0.5-2.2,0.1-3.3c-1.1-2.8-1.7-5.8-1.7-8.9c0-13.6,11-24.6,24.6-24.6c3.2,0,6.3,0.6,9.3,1.8
		c1.1,0.4,2.2,0.4,3.3,0c1.1-0.4,1.9-1.3,2.3-2.3c0.4-1.1,0.4-2.2,0-3.3c-0.4-1.1-1.3-1.9-2.3-2.3c-4-1.6-8.2-2.4-12.5-2.4
		c-18.3,0-33.2,14.9-33.2,33.2c0,4.1,0.8,8.2,2.2,12c0.6,1.6,2.2,2.7,4,2.7c0.5,0,1-0.1,1.5-0.3
		C308.8,263.1,309.6,262.3,310.1,261.3z"/>
	<path class="st1" d="M361.1,233.5c-1.1-0.4-2.2-0.4-3.3,0.1c-1,0.5-1.9,1.3-2.3,2.4s-0.4,2.2,0.1,3.3c1.4,3.1,2.1,6.4,2.1,9.9
		c0,13.6-11,24.6-24.6,24.6c-3.6,0-7-0.7-10.2-2.2c-1-0.5-2.2-0.5-3.3-0.1c-1.1,0.4-1.9,1.2-2.4,2.2c-1,2.1,0,4.7,2.1,5.7
		c4.3,2,9,3,13.8,3c18.3,0,33.2-14.9,33.2-33.2c0-4.6-0.9-9.1-2.8-13.3C363.1,234.8,362.2,234,361.1,233.5z"/>
</g>
<g>
	<path class="st0" d="M231.5,253.4h-4.8c-0.8-3-2-5.8-3.5-8.5l3.4-3.4c0.5-0.5,0.7-1.1,0.7-1.7s-0.2-1.2-0.7-1.7l-9.2-9.2
		c-0.5-0.5-1.1-0.7-1.7-0.7c-0.6,0-1.2,0.2-1.7,0.7l-3.4,3.4c-2.7-1.6-5.5-2.7-8.5-3.5V224c0-1.3-1.1-2.4-2.4-2.4h-13
		c-1.3,0-2.4,1.1-2.4,2.4v4.8c-3,0.8-5.8,2-8.5,3.5l-3.4-3.4c-0.5-0.5-1.1-0.7-1.7-0.7c-0.6,0-1.2,0.2-1.7,0.7l-9.2,9.2
		c-0.5,0.5-0.7,1.1-0.7,1.7s0.2,1.2,0.7,1.7l3.4,3.4c-1.6,2.7-2.7,5.5-3.5,8.5h-4.8c-1.3,0-2.4,1.1-2.4,2.4v13
		c0,1.3,1.1,2.4,2.4,2.4h4.8c0.8,3,2,5.8,3.5,8.5l-3.4,3.4c-0.5,0.5-0.7,1.1-0.7,1.7c0,0.6,0.2,1.2,0.7,1.7l9.2,9.2
		c0.5,0.5,1.1,0.7,1.7,0.7c0.6,0,1.2-0.2,1.7-0.7l3.4-3.4c2.7,1.6,5.5,2.7,8.5,3.5v4.8c0,1.3,1.1,2.4,2.4,2.4h13
		c1.3,0,2.4-1.1,2.4-2.4v-4.8c3-0.8,5.8-2,8.5-3.5l3.4,3.4c0.9,0.9,2.5,0.9,3.4,0l9.2-9.2c0.9-0.9,0.9-2.5,0-3.4l-3.4-3.4
		c1.6-2.7,2.7-5.5,3.5-8.5h4.8c1.3,0,2.4-1.1,2.4-2.4v-13C233.9,254.4,232.8,253.4,231.5,253.4z M222.4,268.2
		c-0.8,3.7-2.2,7.2-4.3,10.4c-0.6,0.9-0.5,2.2,0.3,3l3,3l-5.8,5.8l-3-3c-0.8-0.8-2.1-0.9-3-0.3c-3.2,2.1-6.7,3.6-10.4,4.3
		c-1.1,0.2-1.9,1.2-1.9,2.3v4.3h-8.2v-4.3c0-1.1-0.8-2.1-1.9-2.3c-3.7-0.8-7.2-2.2-10.4-4.3c-0.9-0.6-2.2-0.5-3,0.3l-3,3l-5.8-5.8
		l3-3c0.8-0.8,0.9-2.1,0.3-3c-2.1-3.2-3.6-6.7-4.3-10.4c-0.2-1.1-1.2-1.9-2.3-1.9h-4.3v-8.2h4.3c1.1,0,2.1-0.8,2.3-1.9
		c0.8-3.7,2.2-7.2,4.3-10.4c0.6-0.9,0.5-2.2-0.3-3l-3-3l5.8-5.8l3,3c0.8,0.8,2.1,0.9,3,0.3c3.2-2.1,6.7-3.6,10.4-4.3
		c1.1-0.2,1.9-1.2,1.9-2.3v-4.3h8.2v4.3c0,1.1,0.8,2.1,1.9,2.3c3.7,0.8,7.2,2.2,10.4,4.3c0.9,0.6,2.2,0.5,3-0.3l3-3l5.8,5.8l-3,3
		c-0.8,0.8-0.9,2.1-0.3,3c2.1,3.2,3.6,6.7,4.3,10.4c0.2,1.1,1.2,1.9,2.3,1.9h4.3v8.2h-4.3C223.6,266.3,222.6,267.1,222.4,268.2z"/>
	<path class="st1" d="M180.3,269.1c0.3-0.6,0.3-1.2,0-1.8c-0.6-1.6-0.9-3.3-0.9-5c0-7.6,6.2-13.8,13.8-13.8c1.8,0,3.5,0.3,5.2,1
		c0.6,0.2,1.2,0.2,1.8,0c0.6-0.2,1-0.7,1.3-1.3c0.2-0.6,0.2-1.2,0-1.8c-0.2-0.6-0.7-1-1.3-1.3c-2.2-0.9-4.6-1.4-7-1.4
		c-10.3,0-18.6,8.3-18.6,18.6c0,2.3,0.4,4.6,1.3,6.7c0.4,0.9,1.3,1.5,2.2,1.5c0.3,0,0.6-0.1,0.9-0.2
		C179.5,270.1,180,269.6,180.3,269.1z"/>
	<path class="st1" d="M208.9,253.5c-0.6-0.2-1.2-0.2-1.8,0c-0.6,0.3-1,0.7-1.3,1.3c-0.2,0.6-0.2,1.2,0,1.8c0.8,1.7,1.2,3.6,1.2,5.5
		c0,7.6-6.2,13.8-13.8,13.8c-2,0-3.9-0.4-5.7-1.2c-0.6-0.3-1.2-0.3-1.8-0.1c-0.6,0.2-1.1,0.7-1.3,1.3c-0.5,1.2,0,2.6,1.2,3.2
		c2.4,1.1,5,1.7,7.7,1.7c10.3,0,18.6-8.3,18.6-18.6c0-2.6-0.5-5.1-1.6-7.5C210,254.2,209.5,253.7,208.9,253.5z"/>
</g>
</svg>
