<?xml version="1.0" encoding="utf-8"?>
<!-- Generator: Adobe Illustrator 24.0.1, SVG Export Plug-In . SVG Version: 6.00 Build 0)  -->
<svg version="1.1" id="Layer_1" xmlns="http://www.w3.org/2000/svg" xmlns:xlink="http://www.w3.org/1999/xlink" x="0px" y="0px"
	 viewBox="0 0 146.9 109.3" style="enable-background:new 0 0 146.9 109.3;" xml:space="preserve">
<style type="text/css">
	.st0{opacity:0.29;fill:url(#SVGID_1_);enable-background:new    ;}
	.st1{opacity:0.96;}
	.st2{fill:#586975;}
	.st3{fill:none;stroke:#526C84;stroke-width:1.5;stroke-miterlimit:10;}
	.st4{fill:none;stroke:#788FA3;stroke-width:1.5;stroke-miterlimit:10;}
	.st5{fill:none;stroke:#BFD2DD;stroke-width:1.5;stroke-miterlimit:10;}
	.st6{fill:none;stroke:#BFD2DD;stroke-linecap:round;stroke-linejoin:round;}
	.st7{fill:#F4BF19;}
</style>
<title>no-notification-found</title>
<linearGradient id="SVGID_1_" gradientUnits="userSpaceOnUse" x1="-353.6409" y1="485.7301" x2="-278.2208" y2="533.3701" gradientTransform="matrix(0.51 -0.86 0.86 0.51 -200.994 -483.5317)">
	<stop  offset="0" style="stop-color:#9AB9D6;stop-opacity:0.4"/>
	<stop  offset="0.1849" style="stop-color:#A6C1DB;stop-opacity:0.7"/>
	<stop  offset="0.2917" style="stop-color:#B4CBE0;stop-opacity:0.5"/>
	<stop  offset="0.4589" style="stop-color:#BFD3E5;stop-opacity:0.63"/>
	<stop  offset="0.6056" style="stop-color:#C7D9E9;stop-opacity:0.55"/>
	<stop  offset="0.7213" style="stop-color:#CEDDEB;stop-opacity:0.49"/>
	<stop  offset="0.8827" style="stop-color:#D1DFED;stop-opacity:0.45"/>
	<stop  offset="0.9485" style="stop-color:#D2E0ED;stop-opacity:0.4405"/>
	<stop  offset="0.9991" style="stop-color:#D2E0ED;stop-opacity:0.44"/>
</linearGradient>
<path class="st0" d="M67,16.4c11.7-2.7,22.7-9,33.4-5.4s20.6,13.1,22,23.5s-5.9,21.7-13.3,31.2S94.4,83,84.8,86.7
	c-10.4,3.9-21.9,3.5-31.9-1.2c-10.8-5.1-19-14.6-22.5-26C27,48.1,29,34.8,36,26.7S55.2,19.2,67,16.4z"/>
<g class="st1">
	<path class="st2" d="M93,69.8c-1.2-1.5-1.8-3.5-1.5-5.4l1.9-13c0.1-0.7-0.4-1.4-1.1-1.5s-1.4,0.4-1.5,1.1l0,0l-1.9,13
		c-0.4,2.7,0.4,5.3,2.1,7.4c1.2,1.5,1,3.6-0.5,4.8c-0.8,0.6-1.7,0.9-2.7,0.7l-40.8-6c-1.9-0.3-3.2-2-2.9-3.9c0.1-1,0.7-1.8,1.5-2.3
		c2.2-1.5,3.7-3.9,4.1-6.5l2.2-15.1c1.6-10.8,11.7-18.3,22.5-16.7c3,0.4,5.8,1.5,8.3,3.2c-1.2,1.4-1.9,3.1-2.2,4.9
		c-0.8,5.3,2.9,10.3,8.3,11.1c5.3,0.8,10.3-2.9,11.1-8.3C100.7,32,97,27,91.6,26.2c-2.4-0.4-4.9,0.2-6.9,1.6c-1.8-1.3-3.8-2.3-5.9-3
		c1.8-2,1.5-5.1-0.5-6.9s-5.1-1.5-6.9,0.5c-1.2,1.4-1.5,3.5-0.8,5.2C59.8,24,50.8,32.1,49.2,42.8L47,57.9c-0.3,1.9-1.4,3.6-3,4.7
		c-2.8,1.9-3.5,5.7-1.6,8.5c1,1.4,2.5,2.3,4.1,2.6l12.1,1.8c0,4.7,3.9,8.4,8.5,8.4c3.7,0,6.9-2.4,8-6l12.2,1.8
		c3.3,0.5,6.4-1.8,6.9-5.1C94.6,72.8,94.1,71.1,93,69.8L93,69.8z M91.2,29c3.9,0.6,6.6,4.2,6,8.1s-4.2,6.6-8.1,6s-6.6-4.2-6-8.1l0,0
		C83.7,31.1,87.3,28.4,91.2,29z M75.4,19.4c1.2,0.2,2.1,1.3,1.9,2.6c-0.2,1.2-1.3,2.1-2.6,1.9c-1.2-0.2-2.1-1.3-1.9-2.6l0,0
		C73,20,74.2,19.2,75.4,19.4z M66.4,81.1c-2.7-0.4-4.8-2.6-5-5.3l11.2,1.6C71.6,80,69.1,81.5,66.4,81.1z"/>
	<path class="st2" d="M57.1,42.6c-0.7-0.1-1.4,0.4-1.5,1.1l0,0c-0.1,0.7,0.3,1.4,1.1,1.5s1.4-0.3,1.5-1.1V44l0,0
		C58.3,43.4,57.8,42.7,57.1,42.6z"/>
	<path class="st2" d="M73.9,30.1c-6.4-0.9-12.8,2-16.1,7.6c-0.4,0.6-0.2,1.4,0.4,1.8c0.2,0.1,0.3,0.2,0.5,0.2c0.5,0.1,1-0.2,1.3-0.6
		c2.8-4.6,8.1-7.1,13.5-6.3c0.7,0.1,1.4-0.4,1.5-1.1C75.1,30.9,74.6,30.2,73.9,30.1z"/>
	<circle class="st3" cx="40" cy="20.2" r="2.7"/>
	<circle class="st4" cx="111" cy="53.1" r="2.8"/>
	<circle class="st5" cx="99.9" cy="17.5" r="2.1"/>
</g>
<line class="st6" x1="0.5" y1="102.3" x2="146.4" y2="102.3"/>
<line class="st6" x1="141.9" y1="105.8" x2="144.4" y2="105.8"/>
<line class="st6" x1="130.6" y1="105.9" x2="138.2" y2="105.9"/>
<line class="st6" x1="31.7" y1="105.8" x2="66.5" y2="105.8"/>
<line class="st6" x1="71" y1="105.8" x2="73.5" y2="105.8"/>
<line class="st6" x1="54.6" y1="108.8" x2="58" y2="108.8"/>
<line class="st6" x1="24.7" y1="105.8" x2="27.1" y2="105.8"/>
<line class="st6" x1="29.1" y1="105.8" x2="29.3" y2="105.8"/>
<path class="st7" d="M93.5,38.2L91.4,36l2.1-2.1c0.3-0.3,0.3-0.8,0-1.2l0,0c-0.3-0.3-0.8-0.3-1.2,0l-2.1,2.2L88,32.7
	c-0.3-0.3-0.9-0.2-1.2,0.1c-0.3,0.3-0.3,0.7,0,1.1L89,36l-2.2,2.2c-0.2,0.2-0.2,0.4-0.2,0.6c0,0.2,0.1,0.4,0.2,0.6
	c0.3,0.3,0.8,0.3,1.2,0l2.2-2.2l2.2,2.2c0.3,0.3,0.8,0.3,1.2,0c0.2-0.2,0.2-0.4,0.2-0.6C93.8,38.5,93.7,38.3,93.5,38.2z"/>
</svg>
