<svg xmlns="http://www.w3.org/2000/svg" xmlns:xlink="http://www.w3.org/1999/xlink" width="3345.351" height="188.423" viewBox="0 0 3345.351 188.423">
  <defs>
    <linearGradient id="linear-gradient" x1="0.5" x2="0.5" y2="1" gradientUnits="objectBoundingBox">
      <stop offset="0" stop-color="#3b3737"/>
      <stop offset="1" stop-color="#292929" stop-opacity="0.412"/>
    </linearGradient>
  </defs>
  <path id="wave" d="M0,32,32.757,59.936c32.757,27.675,97.34,83.94,164.712,101.147,64.816,17.468,130.1-3.468,195.145,0,66.442,3.729,132.42,31.208,197.469,27.936,65.978-3.271,132.42-38.6,197.469-38.4,65.281-.2,130.1,35.133,197.469,48.872,64.584,13.739,130.1,7.2,195.146-13.935,66.21-20.74,132.42-56.069,197.469-80.276,65.513-24.207,130.1-38.6,197.469-48.872C1639.919,45.739,1705.2,39.2,1770.248,39c66.442.2,132.42,6.739,197.469,24.4,65.745,17.665,132.42,45.143,197.469,66.275,65.048,20.74,130.1,35.133,195.146,31.4,66.675-3.468,132.42-24.4,197.469-24.4,65.978,0,132.42,20.936,197.469,10.468,65.281-10.468,130.1-52.34,197.469-59.34,64.584-6.739,130.1,20.74,195.145,31.4,66.21,10.272,132.42,3.729,164.944,0l32.524-3.468v104.68H0Z" transform="translate(0 -32)" fill="url(#linear-gradient)"/>
</svg>
