<?xml version="1.0" encoding="utf-8"?>
<!-- Generator: Adobe Illustrator 24.2.1, SVG Export Plug-In . SVG Version: 6.00 Build 0)  -->
<svg version="1.1" id="Layer_1" xmlns="http://www.w3.org/2000/svg" xmlns:xlink="http://www.w3.org/1999/xlink" x="0px" y="0px"
	 viewBox="0 0 598.8 801.3" style="enable-background:new 0 0 598.8 801.3;" xml:space="preserve">
<style type="text/css">
	.st0{fill:url(#Path_1193_1_);}
	.st1{fill:url(#SVGID_1_);filter:url(#Adobe_OpacityMaskFilter);}
	.st2{mask:url(#mask_1_);}
	.st3{opacity:0.32;}
	.st4{fill:#EBEBEB;}
	.st5{fill:none;}
	.st6{fill:#D3D3D3;}
	.st7{fill:#B7B7B7;}
	.st8{fill:#FFFFFF;}
	.st9{fill:#D7D7D7;}
	.st10{fill:url(#SVGID_2_);}
	.st11{opacity:0.755;}
	.st12{fill:url(#Path_1208_1_);}
	.st13{opacity:0.207;fill:url(#Subtraction_8_1_);enable-background:new    ;}
</style>
<g>
	<g id="Layer_1_1_">
		
			<radialGradient id="Path_1193_1_" cx="381.9523" cy="-129.864" r="0.5001" gradientTransform="matrix(605 0 0 797.54 -230780.2344 103977.3984)" gradientUnits="userSpaceOnUse">
			<stop  offset="0" style="stop-color:#1D1F26"/>
			<stop  offset="1" style="stop-color:#1F1F1F"/>
		</radialGradient>
		<path id="Path_1193" class="st0" d="M605,0l-4,801L0,800.5V0H605z"/>
		<defs>
			<filter id="Adobe_OpacityMaskFilter" filterUnits="userSpaceOnUse" x="0" y="232" width="601.1" height="569.3">
				<feColorMatrix  type="matrix" values="1 0 0 0 0  0 1 0 0 0  0 0 1 0 0  0 0 0 1 0"/>
			</filter>
		</defs>
		<mask maskUnits="userSpaceOnUse" x="0" y="232" width="601.1" height="569.3" id="mask_1_">
			
				<linearGradient id="SVGID_1_" gradientUnits="userSpaceOnUse" x1="641.2801" y1="631.51" x2="634.6" y2="35.28" gradientTransform="matrix(1 0 0 -1 0 822)">
				<stop  offset="0.18" style="stop-color:#000000"/>
				<stop  offset="0.25" style="stop-color:#0B0B0B"/>
				<stop  offset="0.38" style="stop-color:#282828"/>
				<stop  offset="0.54" style="stop-color:#575757"/>
				<stop  offset="0.73" style="stop-color:#989898"/>
				<stop  offset="0.95" style="stop-color:#EAEAEA"/>
				<stop  offset="1" style="stop-color:#FFFFFF"/>
			</linearGradient>
			<rect x="-4.5" y="193.4" class="st1" width="1284.5" height="626"/>
		</mask>
		<g class="st2">
			<g class="st3">
				<rect y="232" class="st4" width="601" height="569"/>
				<polygon class="st5" points="85.1,721.2 54.8,800 4.3,800 3.8,728 				"/>
				<path class="st5" d="M326.9,644.3L169.4,775.5l77.6,20l146.1-137.9L326.9,644.3z M266.3,707l25-22.7l47.6,10.5l-24,23.2
					L266.3,707z"/>
				<path class="st5" d="M19,595.7l-16.1,4.5l0.2,34.2l31.4-18L71,632.4l-31.9,19L3.1,635.2l0.5,75l104.5-8.8l68.8-45.1L19,595.7z
					 M104.6,681.2L68,664.6l32.1-18.3l36.5,15.9L104.6,681.2z"/>
				<polygon class="st5" points="601,544 601,529.8 434.8,489.6 601,464.3 601,453.8 384.5,491.1 				"/>
				<polygon class="st5" points="97.6,408.4 1.5,402 1.8,440.7 22.7,438.8 				"/>
				<path class="st5" d="M419.6,512.5L116.7,715.6c-0.9,0.6-1.9,1.2-2.9,1.7L82,800h84.5l-28.9-7.6c-3.5-0.9-5.5-3.3-5.5-6.4
					s2.1-6.6,5.6-9.4l255.7-207.7c3.5-2.6,7.9-3.7,12.2-3.1l187.6,29.4l7.8-9.5v-28L419.6,512.5z M471,563.2l-48.5-8.1l25-22.7
					l47.6,11.1L471,563.2z"/>
				<polygon class="st5" points="47.9,586.9 197.4,642.9 250.4,608.1 101.8,570.6 				"/>
				<path class="st5" d="M511.8,681.3L410.2,800h30.2l-8.8-2.1l22.9-27.3l54.3,12.6L496,800h28.3l69.6-102.3L511.8,681.3z
					 M519.9,769.4l-53.7-12.3l21.1-25.2l52.6,11.6L519.9,769.4z M498.1,718.2l19.4-23.2l50.8,10.7L550,729.5L498.1,718.2z"/>
				<path class="st5" d="M572.8,408.1L2,470.1l0.4,56.9L601,432v-9.7L572.8,408.1z M26,508.9l-1.4-29.1l168.3-17.9l13.7,20.2
					L26,508.9z M438.7,450.2l-9.1-14.7l122.7-18.1l14.9,10.5L438.7,450.2z"/>
				<path class="st5" d="M415,661.9L272.9,800h107L489,676.7L415,661.9z M372,784.6l-52.2-13.3l25.7-25.7l51.2,12.7L372,784.6z
					 M394.5,696.1l21.9-22l48.1,10.9l-21,22.5L394.5,696.1z"/>
				<path class="st5" d="M263.9,511.9L2.6,557l0.2,30L104,557.8c2.9-0.9,5.9-1.1,8.9-0.6l84.9,21c0.6-0.4,1.3-0.7,2-1L308.9,527
					L263.9,511.9z M196.6,567.4L162,557.3l82.7-30.7l27.2,6.9L196.6,567.4z"/>
				<path class="st5" d="M579,385.6l-171.3-0.1l0,0l-114.3-0.1l-117,19.9l111.9,9.9l282-25L579,385.6z"/>
				<path class="st5" d="M336.5,524.5c-0.3,1.9-2.1,3.8-5,5.2l-114.1,53.4l51.7,12.8l133.5-87.6l-48.2-12l-61.6,10.6l40.2,13.2
					C335.5,521,336.8,522.6,336.5,524.5z"/>
				<polygon class="st5" points="601,727.8 601,801 553.2,801.3 554,800 				"/>
				<polygon class="st5" points="140,411.1 115.9,409.5 50.9,436.3 237.1,419.8 				"/>
				<polygon class="st6" points="406.4,281 561.9,327.7 601,323.7 601,281 				"/>
				<polygon class="st6" points="434.8,489.6 601,529.8 601,464.3 				"/>
				<polygon class="st7" points="416.4,674.2 394.4,696.1 443.5,707.5 464.5,685 				"/>
				<polygon class="st7" points="319.7,771.3 371.9,784.6 396.6,758.2 345.4,745.5 				"/>
				<polygon class="st7" points="517.6,695 498.1,718.2 550,729.5 568.4,705.7 				"/>
				<polygon class="st7" points="466.2,757.1 519.9,769.4 539.8,743.6 487.3,731.9 				"/>
				<polygon class="st7" points="266.3,707 314.8,718 338.8,694.8 291.2,684.3 				"/>
				<polygon class="st7" points="495.1,543.5 447.5,532.4 422.6,555.1 471,563.2 				"/>
				<polygon class="st7" points="100.1,646.2 67.9,664.6 104.6,681.2 136.5,662.1 				"/>
				<polygon class="st7" points="71,632.4 34.5,616.5 3.1,634.5 3.1,635.2 39.1,651.4 				"/>
				<polygon class="st7" points="271.9,533.5 244.7,526.6 162,557.3 196.6,567.4 				"/>
				<polygon class="st7" points="508.9,783.2 496,800 440.5,800 431.7,797.9 454.6,770.6 				"/>
				<polygon class="st7" points="345.9,353.7 423.9,357.3 433.3,351.2 357.5,348 				"/>
				<polygon class="st7" points="221.8,348.3 298.7,351.9 309.3,345.8 234.5,342.7 				"/>
				<polygon class="st7" points="24.6,479.8 26,508.9 206.7,482.1 192.9,461.9 				"/>
				<polygon class="st7" points="429.6,435.5 438.7,450.2 567.2,427.9 552.3,417.4 				"/>
				<path class="st4" d="M293.4,378.1c1-0.2,2-0.3,3-0.3l0,0l109.4,0.1l12.9-9.2l-182.5-6L1.3,370.1l0.2,23.1l145.2,9.5L293.4,378.1
					z"/>
				<path class="st4" d="M595.8,610.4l-191.6-30.6l-60.5,50.4l71.3,14c1.1,0.1,2.1,0.3,3.1,0.6l183,35.9v-70.4
					C599.3,610.7,597.5,610.7,595.8,610.4z"/>
				<path class="st8" d="M384.5,491.1l-30.1,5.2l48.2,12L269,595.9l-51.7-12.8l114.2-53.4c2.9-1.3,4.8-3.3,5-5.2s-1.1-3.5-3.6-4.3
					l-40.2-13.2l-28.8,5l45,15.1l-109.2,50.2c-0.7,0.3-1.4,0.6-2,1l-84.9-21c-3-0.6-6-0.4-8.9,0.6L2.8,587l0.1,13.2l16.1-4.5
					l158,60.6l-68.8,45.1L3.7,710.2L3.8,728l81.3-6.8l5.1-13.2l24.9,6l-1.2,3.2c1-0.5,2-1,2.9-1.7l302.9-203.1L601,557.6V544
					L384.5,491.1z M197.4,642.9l-149.5-56l53.9-16.3l148.6,37.5L197.4,642.9z"/>
				<path class="st8" d="M404.1,579.9l-60.5,50.4l71.3,14c1.1,0.1,2.1,0.3,3.1,0.6l183,35.9v8.2l-270.8-57.2l80-58.2l188.3,29.8
					l2.5-3v10.1c-1.7,0.3-3.5,0.3-5.2,0L404.1,579.9z"/>
				<path class="st8" d="M238.6,359.1l193,6.2l-22.4,16.2l-115-0.1L156.3,408L1.5,398v3.9l96.1,6.4l-74.9,30.5l28.2-2.5l65-26.8
					l24.1,1.5l97.2,8.7l51.3-4.6l-111.9-9.9l116.9-19.9l114.3,0.1l0,0l171.3,0.1l14-7.6l-170-0.1l61.5-44.1c2.2-1.6,1.3-3.6-2.1-4.4
					s-7.9-0.1-10.1,1.5l-43.9,30.7l-109.2-3.5l45.1-21.4c3-1.5,3.3-3.5,0.6-4.5s-7.4-0.7-10.4,0.7l-52.7,24.6l-60.3-1.9
					c-0.3,0-0.7,0-1,0l-77.5,2.4l88.1-26.8c3.8-1.2,5.5-3.1,3.8-4.5s-6.1-1.4-9.8-0.3l-107.8,32.3L1.2,363.1v2.9L238.6,359.1z"/>
				<path class="st8" d="M294.2,381.6l115,0.1l22.4-16.2l-193-6.2L1.2,366v4l234.9-7.4l182.5,6l-12.9,9.2l-109.4-0.1l0,0
					c-1,0-2,0.1-3,0.3l-146.7,24.7L1.4,393.2v4.9l154.9,10L294.2,381.6z"/>
				<polygon class="st9" points="601,373.6 593,378 601,378 				"/>
				<polygon class="st9" points="1.8,440.7 1.8,447.3 22.7,438.8 				"/>
				<path class="st9" d="M594.8,398.2c-0.1-1.9,2.6-3.6,6.2-4v-8.5h-22l-8.5,4.6l-282,25l44.1,3.9c4.4,0.4,6.4,2.6,4.6,5
					c-1.7,2.1-6,3.7-10.1,3.7c-0.4,0-0.9,0-1.4-0.1l-88.6-8L50.9,436.3l-49,20.2L2,470.1l570.8-61.9l28.2,14.2V402
					C597.5,401.6,594.8,400.1,594.8,398.2z"/>
				<path class="st9" d="M405.8,289.6c-6-1.8-10.2-3-16-0.2s-1.9,3.8,4.1,5.6L601,369.9v-19.2L405.8,289.6z"/>
				<path class="st9" d="M2.6,557l261.3-45.1l-18.1-6.1c-4-1.3-4.1-4.6-0.4-7.4s9.9-3.8,13.9-2.5l33.5,11l61.6-10.6l-20.2-5
					c-4.3-1.1-5.4-4.2-2.3-6.9s8.9-4,13.2-3l39.5,9.7L601,453.8V432L2.4,526.9L2.6,557z"/>
				<path class="st9" d="M594.8,398.2c0.1,1.9,2.7,3.4,6.2,3.8v-7.8C597.4,394.6,594.7,396.2,594.8,398.2z"/>
				<path class="st9" d="M345,481.4c-4.3-1-10.2,0.3-13.2,3s-2,5.8,2.3,6.9l20.2,5l30.1-5.2L345,481.4z"/>
				<path class="st9" d="M259.3,495.9c-4-1.3-10.2-0.2-13.9,2.5s-3.6,6,0.4,7.4l18.1,6.1l28.8-5L259.3,495.9z"/>
				<polygon class="st9" points="601,385.6 601,378 593,378 579,385.6 				"/>
				<path class="st9" d="M327.1,427.8c4.1,0,8.4-1.5,10.1-3.7c1.9-2.4-0.2-4.6-4.6-5l-44.1-3.9l-51.3,4.6l88.6,8
					C326.2,427.8,326.7,427.8,327.1,427.8z"/>
				<polygon class="st9" points="22.7,438.8 1.8,447.3 1.9,456.5 50.9,436.3 				"/>
				<path class="st8" d="M113.8,717.3L82,800H54.8l30.3-78.8l20.2-1.7C108.2,719.4,111.1,718.6,113.8,717.3z"/>
				<path class="st8" d="M113.8,717.3l1.2-3.2l-24.9-6l-5.1,13.2l20.2-1.7C108.2,719.4,111.1,718.6,113.8,717.3z"/>
				<polygon class="st7" points="2.5,634.8 3.1,635.2 3.1,634.5 				"/>
				
					<radialGradient id="SVGID_2_" cx="741.5" cy="-2455.96" r="1648.67" gradientTransform="matrix(1 0 0 -1 0 822)" gradientUnits="userSpaceOnUse">
					<stop  offset="0" style="stop-color:#1D1F26"/>
					<stop  offset="1" style="stop-color:#1F1F1F"/>
				</radialGradient>
				<polygon class="st10" points="2.5,634.8 3.1,635.2 3.1,634.5 				"/>
			</g>
		</g>
		<g id="Group_186" class="st11">
			
				<image style="overflow:visible;opacity:0.19;enable-background:new    ;" width="396" height="396" xlink:href="17BCB5BAF5C307FB.png"  transform="matrix(1 0 0 1 25 426)">
			</image>
			
				<linearGradient id="Path_1208_1_" gradientUnits="userSpaceOnUse" x1="381.7853" y1="-129.6878" x2="381.6553" y2="-129.1978" gradientTransform="matrix(624.16 37.86 -41.95 691.53 -243451.6562 75675.6094)">
				<stop  offset="0" style="stop-color:#DEB50A;stop-opacity:0.31"/>
				<stop  offset="0.18" style="stop-color:#DDB923;stop-opacity:0.67"/>
				<stop  offset="0.58" style="stop-color:#DDB923"/>
				<stop  offset="1" style="stop-color:#F9AD48"/>
			</linearGradient>
			<path id="Path_1208" class="st12" d="M33,800l331.4-242.9L345,542.3c-1.5-1.2-1.8-3.4-0.6-4.9c0.3-0.4,0.7-0.7,1.1-0.9l20.3-13
				c1.4-0.9,1.8-2.8,0.9-4.2c-0.3-0.4-0.6-0.7-1-1l-138.3-83.6l6.6,0.4l162.8,77.6c1.6,0.8,2.3,2.7,1.5,4.3c-0.3,0.5-0.7,1-1.2,1.3
				l-24.6,15.9c-1.1,0.8-1.5,2.3-0.7,3.4c0.1,0.2,0.3,0.4,0.5,0.6l19.4,15.2c2,1.6,2.3,4.5,0.7,6.4c-0.2,0.3-0.5,0.5-0.7,0.7
				C348,595.9,96,800,96,800H33z"/>
		</g>
		
			<linearGradient id="Subtraction_8_1_" gradientUnits="userSpaceOnUse" x1="207.9672" y1="390.5679" x2="207.9672" y2="432.4824" gradientTransform="matrix(0.9982 6.052591e-02 6.052591e-02 -0.9982 -1.461206e-02 809.9324)">
			<stop  offset="0" style="stop-color:#DDB923"/>
			<stop  offset="1" style="stop-color:#F9AD48"/>
		</linearGradient>
		<path id="Subtraction_8" class="st13" d="M230.1,432.6L230.1,432.6l-9.9-18.8c-0.4-0.7-0.8-1.4-1.2-2.2l-0.2-0.3l0,0
			c-0.8-2-1.1-4.2-1-6.4c0.2-4,2-7.7,5-10.3c1.4-1.3,3.1-2.3,4.9-2.9c1.9-0.7,3.9-0.9,5.9-0.8c8.3,0.5,14.5,7.6,14,15.9
			c-0.2,2.7-1,5.2-2.5,7.4l0,0l-0.1,0.1c-0.5,0.7-1,1.3-1.6,1.9L230.1,432.6z M233.2,400.8c-3.5-0.2-6.5,2.4-6.7,5.9
			c-0.2,3.5,2.4,6.5,5.9,6.7c3.5,0.2,6.5-2.4,6.7-5.9C239.3,404,236.7,401,233.2,400.8L233.2,400.8z"/>
		<path id="Path_1193-2" class="st5" d="M601,245v556l-590-2V245H601z"/>
	</g>
</g>
</svg>
