<?xml version="1.0" encoding="utf-8"?>
<!-- Generator: Adobe Illustrator 25.1.0, SVG Export Plug-In . SVG Version: 6.00 Build 0)  -->
<svg version="1.1" id="Layer_1" xmlns="http://www.w3.org/2000/svg" xmlns:xlink="http://www.w3.org/1999/xlink" x="0px" y="0px"
	 viewBox="0 0 436.8 362.2" style="enable-background:new 0 0 436.8 362.2;" xml:space="preserve">
<style type="text/css">
	.st0{fill:#FFFFFF;}
	.st1{fill:#F9AD48;}
	.st2{fill:none;stroke:#FFFFFF;stroke-width:7;stroke-miterlimit:10;}
	.st3{fill:none;stroke:#FFFFFF;stroke-width:7;stroke-miterlimit:10;stroke-dasharray:11.018,11.018;}
	.st4{fill:none;stroke:#FFFFFF;stroke-width:7;stroke-miterlimit:10;stroke-dasharray:11.6028,11.6028;}
	.st5{fill:none;stroke:#FFFFFF;stroke-width:7;stroke-miterlimit:10;stroke-dasharray:14.1638,14.1638;}
</style>
<g id="Tracking">
	<path class="st0" d="M333.4,224.8l-61.1-61.1c-2.8-2.8-6.5-4.3-10.4-4.3h-84.5v9.8H202v73.9h9.8v-73.9h50.1c1.3,0,2.6,0.5,3.5,1.4
		l8.4,8.4h-22.6c-5.4,0-9.8,4.4-9.8,9.8v44.3c0,5.4,4.4,9.8,9.8,9.8H325v39.4c0,2.7-2.2,4.9-4.9,4.9h-10.2
		c-2.7-18.8-20.1-31.9-39-29.2c-15.1,2.2-27,14.1-29.2,29.2H172c-2.7-18.8-20.1-31.9-39-29.2c-15.1,2.2-27,14.1-29.2,29.2H93.6
		c-2.7,0-4.9-2.2-4.9-4.9V238h-9.8v44.3c0,8.2,6.6,14.8,14.8,14.8h10.2c1.1,7.5,4.6,14.4,10,19.7H39.4v9.8h236.3
		c17.1,0,31.6-12.6,34.1-29.5H320c8.2,0,14.8-6.6,14.8-14.8v-54.2C334.8,227,334.3,225.7,333.4,224.8z M113.3,292.3
		c0-13.6,11-24.6,24.6-24.6s24.6,11,24.6,24.6s-11,24.6-24.6,24.6S113.3,305.9,113.3,292.3z M162,316.9c5.4-5.3,8.9-12.2,10-19.7
		h69.7c1.1,7.5,4.6,14.4,10,19.7H162z M275.8,316.9c-13.6,0-24.6-11-24.6-24.6s11-24.6,24.6-24.6s24.6,11,24.6,24.6
		S289.4,316.9,275.8,316.9z M251.2,233.2v-44.3h32.4l41.4,41.4v2.9L251.2,233.2L251.2,233.2z"/>
	<rect x="133" y="287.4" class="st1" width="9.8" height="9.8"/>
	<rect x="270.8" y="287.4" class="st1" width="9.8" height="9.8"/>
	<rect x="39.4" y="272.6" class="st0" width="24.6" height="9.8"/>
	<rect x="49.3" y="252.9" class="st0" width="14.8" height="9.8"/>
	<rect x="54.2" y="233.2" class="st0" width="9.8" height="9.8"/>
	<path class="st0" d="M103.5,228.3c35.3,0,64-28.7,64-64s-28.7-64-64-64s-64,28.7-64,64S68.1,228.3,103.5,228.3z M103.5,110.1
		c29.9,0,54.2,24.2,54.2,54.2s-24.2,54.2-54.2,54.2s-54.2-24.2-54.2-54.2C49.3,134.4,73.6,110.2,103.5,110.1z"/>
	<path class="st0" d="M103.5,208.6c1.3,0,2.6-0.5,3.5-1.4c3.2-3.2,31-31.6,31-52.7c0-19-15.4-34.5-34.5-34.5S69,135.4,69,154.4
		c0,21.1,27.8,49.5,31,52.7C100.9,208.1,102.1,208.6,103.5,208.6z M103.5,129.8c13.6,0,24.6,11,24.6,24.6
		c0,12.6-15.5,32.2-24.6,42.1c-9.1-9.9-24.6-29.5-24.6-42.1C78.9,140.9,89.9,129.8,103.5,129.8z"/>
	<path class="st1" d="M118.2,154.4c0-8.2-6.6-14.8-14.8-14.8s-14.8,6.6-14.8,14.8s6.6,14.8,14.8,14.8S118.2,162.6,118.2,154.4z
		 M98.5,154.4c0-2.7,2.2-4.9,4.9-4.9s4.9,2.2,4.9,4.9s-2.2,4.9-4.9,4.9S98.5,157.2,98.5,154.4z"/>
	<rect x="226.5" y="252.9" class="st0" width="19.7" height="9.8"/>
</g>
<g>
	<path class="st0" d="M240.4,110.5c1.3,0,2.6-0.5,3.5-1.4c3.2-3.2,31-31.6,31-52.7c0-19-15.4-34.5-34.5-34.5s-34.5,15.4-34.5,34.5
		c0,21.1,27.8,49.5,31,52.7C237.8,109.9,239.1,110.5,240.4,110.5z M240.4,31.7c13.6,0,24.6,11,24.6,24.6c0,12.6-15.5,32.2-24.6,42.1
		c-9.1-9.9-24.6-29.5-24.6-42.1C215.8,42.7,226.8,31.7,240.4,31.7z"/>
	<path class="st1" d="M255.1,56.3c0-8.2-6.6-14.8-14.8-14.8s-14.8,6.6-14.8,14.8s6.6,14.8,14.8,14.8S255.1,64.5,255.1,56.3z
		 M235.4,56.3c0-2.7,2.2-4.9,4.9-4.9s4.9,2.2,4.9,4.9s-2.2,4.9-4.9,4.9S235.4,59,235.4,56.3z"/>
</g>
<g>
	<g>
		<line class="st2" x1="280.8" y1="109.2" x2="286.8" y2="109.2"/>
		<line class="st3" x1="297.8" y1="109.2" x2="380.4" y2="109.2"/>
		<polyline class="st2" points="385.9,109.2 391.9,109.2 391.9,115.2 		"/>
		<line class="st4" x1="391.9" y1="126.8" x2="391.9" y2="306.7"/>
		<polyline class="st2" points="391.9,312.5 391.9,318.5 385.9,318.5 		"/>
		<line class="st5" x1="371.8" y1="318.5" x2="350.5" y2="318.5"/>
		<line class="st2" x1="343.4" y1="318.5" x2="337.4" y2="318.5"/>
	</g>
</g>
</svg>
