<svg xmlns="http://www.w3.org/2000/svg" width="27.211" height="27.211" viewBox="0 0 27.211 27.211">
  <g id="patient_information-information-record-computer-data" data-name="patient information-information-record-computer-data" transform="translate(-2 -2)">
    <path id="Path_1695" data-name="Path 1695" d="M29.3,41v1.814a1.814,1.814,0,0,1-1.814,1.814H4.814A1.814,1.814,0,0,1,3,42.814V41Z" transform="translate(-0.546 -21.313)" fill="#bddbff"/>
    <path id="Path_1696" data-name="Path 1696" d="M37,31h8.163v1.814H37Z" transform="translate(-19.127 -15.848)" fill="#bddbff"/>
    <path id="Path_1697" data-name="Path 1697" d="M30.7,57.907v.907H18v-.907A.91.91,0,0,1,18.907,57H29.791A.91.91,0,0,1,30.7,57.907Z" transform="translate(-8.744 -30.057)" fill="#bddbff"/>
    <path id="Path_1698" data-name="Path 1698" d="M9,9V20.791H19.884V9Zm7.71,5.442A1.814,1.814,0,0,1,14.9,16.256h-.907a1.814,1.814,0,0,1-1.814-1.814V13.082l3.175-.454,1.361.454Z" transform="translate(-3.825 -3.825)" fill="#bddbff"/>
    <g id="Group_416" data-name="Group 416" transform="translate(2 2)">
      <path id="Path_1699" data-name="Path 1699" d="M26.943,2H4.268A2.268,2.268,0,0,0,2,4.268V21.5a2.268,2.268,0,0,0,2.268,2.268h8.617V26.49H10.163A1.365,1.365,0,0,0,8.8,27.85v.907a.454.454,0,0,0,.454.454h12.7a.454.454,0,0,0,.454-.454V27.85a1.365,1.365,0,0,0-1.361-1.361H18.327V23.769h8.617A2.268,2.268,0,0,0,29.211,21.5V4.268A2.268,2.268,0,0,0,26.943,2Zm-5.9,25.4a.454.454,0,0,1,.454.454V28.3H9.71V27.85a.454.454,0,0,1,.454-.454Zm-7.256-.907V23.769H17.42V26.49ZM28.3,21.5a1.365,1.365,0,0,1-1.361,1.361H4.268A1.365,1.365,0,0,1,2.907,21.5V20.141H28.3Zm0-2.268H2.907V4.268A1.365,1.365,0,0,1,4.268,2.907H26.943A1.365,1.365,0,0,1,28.3,4.268Z" transform="translate(-2 -2)" fill="#57a4ff"/>
      <path id="Path_1700" data-name="Path 1700" d="M54,44h.907v.907H54Z" transform="translate(-30.417 -24.952)" fill="#57a4ff"/>
      <path id="Path_1701" data-name="Path 1701" d="M50,44h.907v.907H50Z" transform="translate(-28.231 -24.952)" fill="#57a4ff"/>
      <path id="Path_1702" data-name="Path 1702" d="M19.338,8H8.454A.454.454,0,0,0,8,8.454V20.245a.454.454,0,0,0,.454.454H19.338a.454.454,0,0,0,.454-.454V8.454A.454.454,0,0,0,19.338,8ZM17.07,19.791H10.721V18.431a2.268,2.268,0,0,1,2.268-2.268H14.8a2.268,2.268,0,0,1,2.268,2.268Zm-2.308-7.247.948.317V13.9a1.365,1.365,0,0,1-1.361,1.361h-.907A1.365,1.365,0,0,1,12.082,13.9V12.93Zm-2.671-.535a1.355,1.355,0,0,1,1.351-1.288h.907A1.361,1.361,0,0,1,15.692,11.9l-.744-.249a.468.468,0,0,0-.209-.018Zm6.794,7.782h-.907V18.431a3.183,3.183,0,0,0-2.009-2.952,2.258,2.258,0,0,0,.649-1.583V12.082a2.268,2.268,0,0,0-2.268-2.268h-.907a2.268,2.268,0,0,0-2.268,2.268V13.9a2.258,2.258,0,0,0,.649,1.583,3.183,3.183,0,0,0-2.009,2.952v1.361H8.907V8.907h9.977Z" transform="translate(-5.279 -5.279)" fill="#57a4ff"/>
      <path id="Path_1703" data-name="Path 1703" d="M36.454,32.721h8.163a.454.454,0,0,0,.454-.454V30.454A.454.454,0,0,0,44.617,30H36.454a.454.454,0,0,0-.454.454v1.814A.454.454,0,0,0,36.454,32.721Zm.454-1.814h7.256v.907H36.907Z" transform="translate(-20.58 -17.302)" fill="#57a4ff"/>
      <path id="Path_1704" data-name="Path 1704" d="M36,8h1.814v.907H36Z" transform="translate(-20.58 -5.279)" fill="#57a4ff"/>
      <path id="Path_1705" data-name="Path 1705" d="M42,8h6.349v.907H42Z" transform="translate(-23.859 -5.279)" fill="#57a4ff"/>
      <path id="Path_1706" data-name="Path 1706" d="M36,14h1.814v.907H36Z" transform="translate(-20.58 -8.558)" fill="#57a4ff"/>
      <path id="Path_1707" data-name="Path 1707" d="M42,14h6.349v.907H42Z" transform="translate(-23.859 -8.558)" fill="#57a4ff"/>
      <path id="Path_1708" data-name="Path 1708" d="M36,20h1.814v.907H36Z" transform="translate(-20.58 -11.837)" fill="#57a4ff"/>
      <path id="Path_1709" data-name="Path 1709" d="M42,20h6.349v.907H42Z" transform="translate(-23.859 -11.837)" fill="#57a4ff"/>
      <path id="Path_1710" data-name="Path 1710" d="M36,26h1.814v.907H36Z" transform="translate(-20.58 -15.116)" fill="#57a4ff"/>
      <path id="Path_1711" data-name="Path 1711" d="M42,26h6.349v.907H42Z" transform="translate(-23.859 -15.116)" fill="#57a4ff"/>
    </g>
  </g>
</svg>
